<?xml version="1.0" encoding="utf-8"?>
<!-- Generator: Adobe Illustrator 25.2.0, SVG Export Plug-In . SVG Version: 6.00 Build 0)  -->
<svg version="1.1" id="Layer_1" xmlns="http://www.w3.org/2000/svg" xmlns:xlink="http://www.w3.org/1999/xlink" x="0px" y="0px"
	 viewBox="0 0 210.8 209" style="enable-background:new 0 0 210.8 209;" xml:space="preserve">
<style type="text/css">
	.st0{fill:#231F20;}
</style>
<g>
	<path class="st0" d="M105.4,76c-15.7,0-28.5,12.8-28.5,28.5S89.7,133,105.4,133s28.5-12.8,28.5-28.5S121.1,76,105.4,76z"/>
	<path class="st0" d="M171.6,3.3H39.2c-19.3,0-35,15.7-35,35v132.5c0,19.3,15.7,35,35,35h132.5c19.3,0,35-15.7,35-35V38.3
		C206.6,19,190.9,3.3,171.6,3.3z M105.4,163c-32.2,0-58.5-26.2-58.5-58.5S73.1,46,105.4,46s58.5,26.2,58.5,58.5S137.6,163,105.4,163
		z M185.3,39.1c0,8-6.5,14.5-14.5,14.5l0,0c-8,0-14.5-6.5-14.5-14.5l0,0c0-8,6.5-14.5,14.5-14.5l0,0
		C178.8,24.6,185.3,31.1,185.3,39.1L185.3,39.1z"/>
</g>
</svg>
